<svg width="215" height="528" viewBox="0 0 215 528" fill="none" xmlns="http://www.w3.org/2000/svg">
<path d="M80.6421 343.08C81.2621 339.76 82.0721 336.59 82.4121 333.38C85.8421 300.86 84.6721 268.28 83.7521 235.7C81.8921 170.39 77.7021 105.23 72.2021 40.1399C71.6521 33.6699 70.6321 27.2399 70.2421 20.7599C69.9921 16.6399 70.0321 12.3899 70.7421 8.33986C71.9721 1.29986 77.5221 -2.05014 83.7421 1.31986C90.8621 5.17986 97.7921 9.84986 103.712 15.3399C113.942 24.8399 120.732 37.0499 127.342 49.2499C128.562 51.4899 129.822 53.7099 131.322 56.3999C132.612 55.1899 133.672 54.3999 134.472 53.3999C146.102 38.8799 157.702 24.3499 169.262 9.76986C170.232 8.53986 170.832 7.01986 171.582 5.60986C173.462 2.07986 176.392 0.569858 179.672 1.44986C182.962 2.33986 185.072 5.54986 184.522 9.48986C184.032 12.9999 183.232 16.4799 182.362 19.9099C176.162 44.1899 172.932 68.9899 170.032 93.7999C161.762 164.75 153.892 235.74 145.922 306.72C145.172 313.41 144.802 320.15 144.242 326.86C144.182 327.59 144.182 328.35 143.982 329.04C143.372 331.15 142.952 333.63 140.042 333.57C136.802 333.49 136.952 330.7 136.952 328.66C136.972 313.85 136.132 298.95 137.482 284.26C143.302 220.94 149.632 157.67 156.112 94.4099C157.792 77.9699 160.702 61.6599 163.032 45.2899C163.192 44.1599 163.272 43.0099 162.732 41.6099C161.642 42.8799 160.572 44.1599 159.472 45.4099C153.222 52.4599 147.212 59.7599 140.642 66.4899C133.742 73.5599 126.232 72.8999 120.552 64.7899C116.632 59.1899 113.562 53.0099 110.022 47.1399C103.682 36.6299 97.0921 26.2999 87.0721 18.7699C86.1421 18.0699 85.1421 17.4499 83.5921 16.3999C83.6721 18.2299 83.6821 19.3899 83.7821 20.5499C86.0621 47.6499 88.4921 74.7399 90.6021 101.86C95.4921 164.68 97.4221 227.63 98.0621 290.62C98.2221 306.86 96.2321 323.13 95.0721 339.37C94.6221 345.73 91.6821 350.57 85.3021 352.67C84.4521 352.95 83.4521 353.06 82.5821 352.9C80.3221 352.46 78.1121 351.43 75.8621 351.34C60.4721 350.67 45.0621 350.18 29.6621 349.66C27.0221 349.57 24.3821 349.65 21.7121 349.65C21.7421 350.27 21.6621 350.58 21.7721 350.72C38.3021 369.78 48.0721 392.81 58.9521 415.09C70.5521 438.84 80.9421 463.19 92.0321 487.2C95.0021 493.64 98.4721 499.85 101.922 506.05C103.332 508.57 105.322 510.76 107.502 513.74C109.242 511.51 110.842 509.87 111.972 507.95C117.902 497.81 123.942 487.72 129.542 477.39C148.912 441.66 168.082 405.82 187.442 370.09C191.052 363.42 195.192 357.05 199.092 350.53C199.632 349.62 200.142 348.69 201.052 347.09C199.172 347.09 197.892 347.05 196.612 347.09C185.242 347.47 173.882 348.06 162.512 348.15C157.172 348.19 151.732 347.73 146.542 346.57C143.852 345.97 141.102 343.77 139.292 341.55C136.972 338.71 138.252 335.9 141.812 334.8C143.422 334.31 145.172 334.1 146.862 334.08C157.252 333.96 167.652 333.67 178.032 333.96C187.672 334.23 197.292 335.11 206.902 335.87C208.422 335.99 209.962 336.7 211.362 337.4C215.172 339.31 215.652 340.95 213.662 344.75C195.892 378.56 178.302 412.45 160.292 446.13C148.402 468.37 135.952 490.3 123.652 512.32C121.812 515.62 119.662 518.81 117.242 521.7C111.742 528.25 104.692 528.81 98.3121 523.06C95.4421 520.47 92.7821 517.41 90.7921 514.11C86.5621 507.1 82.4621 499.96 78.9421 492.57C65.1521 463.61 51.6921 434.49 37.9221 405.52C33.8221 396.9 29.5321 388.31 24.5421 380.2C19.7521 372.42 13.9621 365.27 8.58208 357.86C6.57208 355.09 4.20208 352.55 2.48208 349.62C-1.41792 342.97 1.42208 337.08 8.95208 335.76C10.0321 335.57 11.1321 335.39 12.2321 335.36C31.2421 334.71 50.1321 335.89 68.8221 339.59C72.6121 340.34 76.2821 341.76 80.6921 343.08H80.6421Z" fill="black"/>
</svg>
